<svg width="136" height="40" viewBox="0 0 136 40" fill="none" xmlns="http://www.w3.org/2000/svg">
<g clip-path="url(#clip0_16_379)">
<path fill-rule="evenodd" clip-rule="evenodd" d="M130.196 40H5.23957C2.47195 40 0.217957 37.7456 0.217957 35V5C0.217957 2.24439 2.47195 0 5.23957 0H130.196C132.961 0 135.218 2.24439 135.218 5V35C135.218 37.7456 132.961 40 130.196 40Z" fill="black"/>
<path fill-rule="evenodd" clip-rule="evenodd" d="M130.196 0.800499C132.518 0.800499 134.418 2.68828 134.418 5V35C134.418 37.3117 132.53 39.1995 130.196 39.1995H5.23957C2.91826 39.1995 1.01832 37.3117 1.01832 35V5C1.01832 2.68828 2.90579 0.800499 5.23957 0.800499H130.196ZM130.196 0H5.23957C2.47195 0 0.217957 2.25436 0.217957 5V35C0.217957 37.7556 2.47195 40 5.23957 40H130.196C132.961 40 135.218 37.7556 135.218 35V5C135.218 2.25436 132.961 0 130.196 0Z" fill="#A6A6A6"/>
<path d="M68.354 21.752C66.002 21.752 64.0849 23.54 64.0849 26.005C64.0849 28.454 66.002 30.258 68.354 30.258C70.7059 30.258 72.6229 28.454 72.6229 26.005C72.6229 23.54 70.7059 21.752 68.354 21.752ZM68.354 28.583C67.065 28.583 65.9529 27.52 65.9529 26.005C65.9529 24.474 67.065 23.427 68.354 23.427C69.643 23.427 70.754 24.474 70.754 26.005C70.754 27.519 69.643 28.583 68.354 28.583ZM59.0399 21.752C56.6879 21.752 54.771 23.54 54.771 26.005C54.771 28.454 56.6879 30.258 59.0399 30.258C61.3919 30.258 63.3089 28.454 63.3089 26.005C63.3099 23.54 61.3919 21.752 59.0399 21.752ZM59.0399 28.583C57.7509 28.583 56.6399 27.52 56.6399 26.005C56.6399 24.474 57.7519 23.427 59.0399 23.427C60.3289 23.427 61.4399 24.474 61.4399 26.005C61.4409 27.519 60.3289 28.583 59.0399 28.583ZM47.9619 23.057V24.861H52.2799C52.1509 25.876 51.8129 26.617 51.2969 27.133C50.6689 27.761 49.6859 28.454 47.9619 28.454C45.3039 28.454 43.2259 26.311 43.2259 23.653C43.2259 20.995 45.3039 18.852 47.9619 18.852C49.3959 18.852 50.443 19.416 51.216 20.141L52.4889 18.868C51.4099 17.837 49.9759 17.047 47.9619 17.047C44.3209 17.047 41.2599 20.011 41.2599 23.652C41.2599 27.293 44.3209 30.257 47.9619 30.257C49.9269 30.257 51.41 29.613 52.57 28.404C53.762 27.212 54.1329 25.536 54.1329 24.183C54.1329 23.764 54.1009 23.377 54.0359 23.055H47.9619V23.057ZM93.27 24.458C92.916 23.507 91.836 21.751 89.629 21.751C87.438 21.751 85.618 23.475 85.618 26.004C85.618 28.388 87.422 30.257 89.839 30.257C91.788 30.257 92.916 29.065 93.3829 28.372L91.9329 27.405C91.4499 28.114 90.789 28.581 89.839 28.581C88.888 28.581 88.2119 28.146 87.7769 27.292L93.464 24.94L93.27 24.458ZM87.4699 25.876C87.4219 24.233 88.7429 23.395 89.6929 23.395C90.4339 23.395 91.062 23.765 91.2719 24.297L87.4699 25.876ZM82.8459 30H84.715V17.499H82.8459V30ZM79.785 22.702H79.7209C79.3019 22.203 78.4969 21.751 77.4819 21.751C75.3549 21.751 73.406 23.62 73.406 26.02C73.406 28.404 75.3549 30.257 77.4819 30.257C78.4969 30.257 79.3019 29.806 79.7209 29.29H79.785V29.902C79.785 31.529 78.9149 32.399 77.5129 32.399C76.3689 32.399 75.66 31.577 75.3699 30.885L73.743 31.562C74.2099 32.69 75.4509 34.075 77.5129 34.075C79.7039 34.075 81.5569 32.786 81.5569 29.645V22.009H79.785V22.702ZM77.643 28.583C76.354 28.583 75.2749 27.504 75.2749 26.021C75.2749 24.523 76.354 23.427 77.643 23.427C78.916 23.427 79.9139 24.522 79.9139 26.021C79.9139 27.503 78.916 28.583 77.643 28.583ZM102.024 17.499H97.5529V30H99.4179V25.264H102.023C104.091 25.264 106.124 23.767 106.124 21.382C106.124 18.997 104.092 17.499 102.024 17.499ZM102.072 23.524H99.4179V19.239H102.072C103.467 19.239 104.259 20.394 104.259 21.382C104.259 22.35 103.467 23.524 102.072 23.524ZM113.604 21.729C112.253 21.729 110.854 22.324 110.275 23.643L111.932 24.335C112.286 23.643 112.945 23.418 113.637 23.418C114.602 23.418 115.583 23.997 115.599 25.026V25.155C115.261 24.962 114.537 24.672 113.653 24.672C111.868 24.672 110.05 25.653 110.05 27.487C110.05 29.16 111.514 30.237 113.154 30.237C114.409 30.237 115.1 29.674 115.534 29.015H115.598V29.98H117.399V25.187C117.399 22.967 115.743 21.729 113.604 21.729ZM113.378 28.58C112.767 28.58 111.914 28.274 111.914 27.519C111.914 26.554 112.976 26.184 113.892 26.184C114.712 26.184 115.098 26.361 115.597 26.602C115.453 27.76 114.456 28.58 113.378 28.58ZM123.961 22.002L121.822 27.422H121.758L119.539 22.002H117.529L120.858 29.577L118.96 33.791H120.906L126.037 22.002H123.961ZM107.154 30H109.02V17.499H107.154V30Z" fill="white"/>
<path d="M20.9349 19.4243L10.2879 30.7243C10.2889 30.7263 10.2889 30.7283 10.2899 30.7303C10.6159 31.9583 11.7369 32.8613 13.0669 32.8613C13.5989 32.8613 14.0979 32.7173 14.5259 32.4653L14.5599 32.4453L26.5439 25.5303L20.9349 19.4243Z" fill="#EB4335"/>
<path d="M31.706 17.5003L31.696 17.4933L26.522 14.4933L20.693 19.6803L26.542 25.5283L31.689 22.5593C32.591 22.0723 33.203 21.1213 33.203 20.0243C33.203 18.9353 32.599 17.9883 31.706 17.5003Z" fill="#FABC13"/>
<path d="M10.2879 9.27734C10.2239 9.51334 10.1899 9.76034 10.1899 10.0173V29.9843C10.1899 30.2413 10.2229 30.4893 10.2879 30.7243L21.3009 19.7133L10.2879 9.27734Z" fill="#547DBF"/>
<path d="M21.0129 20.0003L26.5239 14.4913L14.5529 7.55132C14.1179 7.29032 13.6109 7.14032 13.0669 7.14032C11.7369 7.14032 10.6149 8.04532 10.2879 9.27432V9.27732L21.0129 20.0003Z" fill="#30A851"/>
<path d="M47.593 9.791H44.685V10.512H46.864C46.805 11.098 46.57 11.559 46.177 11.894C45.783 12.229 45.28 12.397 44.685 12.397C44.031 12.397 43.478 12.171 43.026 11.718C42.582 11.257 42.355 10.688 42.355 10C42.355 9.313 42.582 8.743 43.026 8.282C43.478 7.83 44.031 7.604 44.685 7.604C45.02 7.604 45.339 7.662 45.632 7.788C45.925 7.914 46.16 8.09 46.344 8.316L46.897 7.763C46.646 7.478 46.327 7.26 45.934 7.101C45.54 6.942 45.129 6.866 44.685 6.866C43.813 6.866 43.076 7.168 42.473 7.771C41.869 8.375 41.568 9.12 41.568 10C41.568 10.88 41.869 11.626 42.473 12.229C43.076 12.833 43.813 13.134 44.685 13.134C45.598 13.134 46.327 12.841 46.889 12.246C47.383 11.752 47.635 11.081 47.635 10.243C47.635 10.101 47.618 9.95 47.593 9.791Z" fill="white"/>
<path d="M48.741 7V13H52.244V12.263H49.512V10.361H51.975V9.64H49.512V7.738H52.244V7H48.741Z" fill="white"/>
<path d="M57.17 7.738V7H53.047V7.738H54.723V13H55.494V7.738H57.17Z" fill="white"/>
<path d="M60.9249 7H60.1539V13H60.9249V7Z" fill="white"/>
<path d="M66.0199 7.738V7H61.8969V7.738H63.5729V13H64.3439V7.738H66.0199Z" fill="white"/>
<path d="M73.822 7.78C73.227 7.168 72.498 6.866 71.626 6.866C70.755 6.866 70.025 7.168 69.43 7.771C68.835 8.366 68.542 9.112 68.542 10C68.542 10.889 68.835 11.634 69.43 12.229C70.025 12.833 70.755 13.134 71.626 13.134C72.489 13.134 73.227 12.833 73.822 12.229C74.417 11.634 74.71 10.889 74.71 10C74.71 9.12 74.417 8.375 73.822 7.78ZM69.984 8.282C70.428 7.83 70.972 7.604 71.626 7.604C72.28 7.604 72.824 7.83 73.26 8.282C73.704 8.727 73.922 9.305 73.922 10C73.922 10.696 73.704 11.274 73.26 11.718C72.824 12.171 72.28 12.397 71.626 12.397C70.972 12.397 70.428 12.171 69.984 11.718C69.548 11.266 69.33 10.696 69.33 10C69.33 9.305 69.548 8.735 69.984 8.282Z" fill="white"/>
<path d="M76.562 9.263L76.529 8.106H76.562L79.613 13H80.417V7H79.646V10.512L79.68 11.668H79.646L76.73 7H75.792V13H76.562V9.263Z" fill="white"/>
</g>
<defs>
<clipPath id="clip0_16_379">
<rect width="135" height="40" fill="white" transform="translate(0.217957)"/>
</clipPath>
</defs>
</svg>
